:SAMPLES-PER-SECOND 30
:FULLY-SPECIFIED
:DEGREES
404
root  37.4793 38.0084 17.0754 -177.287 -74.8395 172.563
RightUpLeg  -23.391 -3.31316 -0.128289
RightLeg  0.859695 -11.2722 5.45137
RightFoot  -5.25431 -0.424196 7.23
RightToes  0.00048216 0.542163 -0.142577
Spine  20.161 -7.0898 -16.0119
Spine1  5.31434 -14.2101 16.6091
HEad  -5.54456 21.6323 -8.38091
LeftShoulder1  9.61071 -16.5543 -41.5567
LeftArm  33.4728 -34.0705 -61.8148
LeftForeArm  3.39977 -16.543 -8.65378
LeftHand  -0.25398 0.0180481 5.50724
RightShoulder  3.82722 6.75476 31.3589
RightArm  -17.9651 -33.8833 33.7667
RightForeArm  -11.6268 72.653 43.9779
RightHand  -0.591372 -1.22762 -16.3198
LeftUpLeg  20.5521 4.41973 -9.57966
LeftLeg  7.24414 18.922 -3.89624
LeftFoot  -21.1671 0.263208 1.58376
LeftToes  1.06246e-005 4.65856e-005 -8.18501e-006
405
root  35.5882 37.7517 16.8309 -178.513 -76.4593 173.742
RightUpLeg  -23.675 -3.43297 1.29038
RightLeg  4.10692 -8.79375 4.56962
RightFoot  -4.78887 -0.370505 5.99433
RightToes  0.00048216 0.542163 -0.142577
Spine  19.5215 -7.51647 -15.531
Spine1  5.24818 -14.6786 17.2101
HEad  -5.01687 20.9425 -8.17053
LeftShoulder1  9.58089 -16.4596 -41.6305
LeftArm  35.616 -32.5667 -61.8458
LeftForeArm  1.46019 -17.9424 -7.78722
LeftHand  -0.25398 0.0180481 5.50724
RightShoulder  3.72072 6.50241 31.2331
RightArm  -17.4918 -35.2679 33.3873
RightForeArm  -10.0336 72.8987 44.724
RightHand  -0.625404 -0.882449 -15.9719
LeftUpLeg  23.2063 5.45748 -7.96915
LeftLeg  9.00471 15.7558 -3.82614
LeftFoot  -20.4866 0.133508 0.131987
LeftToes  1.06246e-005 4.65856e-005 -8.18501e-006
406
root  33.578 37.6158 16.6433 176.569 -78.0342 178.93
RightUpLeg  -24.5109 -5.65083 4.39377
RightLeg  9.71622 -5.21095 2.66359
RightFoot  -1.5638 -0.147045 1.74136
RightToes  0.00048216 0.542163 -0.142577
Spine  19.1163 -8.34271 -13.35
Spine1  4.7841 -15.1938 17.6186
HEad  -4.91738 20.3367 -8.7925
LeftShoulder1  9.69886 -16.4464 -42.2116
LeftArm  37.2446 -31.0009 -61.5911
LeftForeArm  -0.227409 -18.849 -7.2584
LeftHand  -0.25398 0.0180481 5.50724
RightShoulder  3.613 6.25577 31.0667
RightArm  -16.8954 -36.9122 32.3556
RightForeArm  -7.21581 73.3056 46.007
RightHand  -0.569341 -1.03073 -15.0168
LeftUpLeg  25.7768 8.66961 -4.05111
LeftLeg  10.9412 9.68925 -3.62308
LeftFoot  -18.6353 -0.0585412 -2.70573
LeftToes  1.06246e-005 4.65856e-005 -8.18501e-006
407
root  31.5092 37.5524 16.5384 169.077 -78.5884 -173.205
RightUpLeg  -25.9318 -8.44378 7.94831
RightLeg  16.251 -1.56239 0.384843
RightFoot  2.33717 0.337343 -2.7262
RightToes  0.00048216 0.542163 -0.142577
Spine  19.0567 -9.193 -9.80601
Spine1  3.96322 -15.2941 17.4977
HEad  -5.3147 19.8755 -10.1173
LeftShoulder1  9.88536 -16.4959 -42.9652
LeftArm  37.8684 -29.4543 -61.2169
LeftForeArm  -1.17827 -19.4575 -6.88266
LeftHand  -0.25398 0.0180481 5.50724
RightShoulder  3.55285 6.14979 30.8478
RightArm  -16.4381 -38.4057 31.1041
RightForeArm  -4.36764 73.7703 47.645
RightHand  -0.557893 -0.944062 -14.4443
LeftUpLeg  27.7405 15.5237 2.11503
LeftLeg  14.3517 0.227306 -2.75154
LeftFoot  -14.9609 -0.114452 -6.82964
LeftToes  1.06246e-005 4.65856e-005 -8.18501e-006
408
root  29.497 37.5304 16.4656 163.52 -78.216 -167.279
RightUpLeg  -26.8653 -8.20191 9.16981
RightLeg  22.307 -1.12328 -0.863161
RightFoot  3.62112 0.735066 -5.44476
RightToes  0.00048216 0.542163 -0.142577
Spine  19.2108 -9.77358 -6.48405
Spine1  3.25111 -15.0816 17.1896
HEad  -6.16754 19.7936 -11.478
LeftShoulder1  10.0044 -16.5919 -43.294
LeftArm  38.1851 -28.4441 -60.9463
LeftForeArm  -1.55913 -19.989 -6.53323
LeftHand  -0.25398 0.0180481 5.50724
RightShoulder  3.57205 6.24843 30.6706
RightArm  -16.1323 -39.1159 30.0726
RightForeArm  -3.31615 74.0017 48.5834
RightHand  -0.670909 -0.176147 -14.8995
LeftUpLeg  26.7215 20.4043 6.4587
LeftLeg  21.6142 -5.6952 -1.73266
LeftFoot  -7.31374 0.389096 -9.96886
LeftToes  1.06246e-005 4.65856e-005 -8.18501e-006
409
root  27.6932 37.5232 16.3518 159.128 -78.0116 -162.325
RightUpLeg  -26.9701 -7.77156 9.49252
RightLeg  26.9909 -1.65574 -1.14449
RightFoot  1.57867 0.807065 -7.03808
RightToes  0.00048216 0.542163 -0.142577
Spine  19.3983 -10.2004 -4.11708
Spine1  3.14582 -15.0593 17.5487
HEad  -7.04076 19.7115 -12.2436
LeftShoulder1  10.0346 -16.6991 -43.1875
LeftArm  39.2771 -28.4707 -60.8611
LeftForeArm  -1.99022 -20.3082 -6.3712
LeftHand  -0.25398 0.0180481 5.50724
RightShoulder  3.62797 6.41231 30.629
RightArm  -15.8896 -39.0126 29.4014
RightForeArm  -3.64023 74 48.6287
RightHand  -0.812533 0.659465 -15.6504
LeftUpLeg  20.6264 17.459 6.11609
LeftLeg  32.712 -2.64329 -1.46719
LeftFoot  4.75309 1.40441 -10.2299
LeftToes  1.06246e-005 4.65856e-005 -8.18501e-006
410
root  26.1252 37.5009 16.1972 152.59 -78.2126 -154.995
RightUpLeg  -26.7073 -8.95275 10.6127
RightLeg  30.3542 -1.52663 -1.21644
RightFoot  -1.92793 0.658757 -8.12813
RightToes  0.00048216 0.542163 -0.142577
Spine  19.5603 -10.6375 -2.01637
Spine1  3.5387 -15.2641 18.6341
HEad  -7.30278 19.3461 -12.378
LeftShoulder1  10.0345 -16.745 -43.0824
LeftArm  40.8193 -29.3019 -60.948
LeftForeArm  -2.40551 -20.2786 -6.46098
LeftHand  -0.25398 0.0180481 5.50724
RightShoulder  3.67262 6.499 30.7604
RightArm  -15.7817 -38.5445 29.0857
RightForeArm  -3.80158 74.0032 48.6704
RightHand  -0.868533 0.930604 -16.0253
LeftUpLeg  12.5227 14.6213 6.39128
LeftLeg  44.7344 -0.535787 -0.150514
LeftFoot  15.2944 2.11477 -9.31277
LeftToes  1.06246e-005 4.65856e-005 -8.18501e-006
411
root  24.5717 37.6574 16.0358 147.585 -78.2054 -149.421
RightUpLeg  -25.2106 -10.1 11.24
RightLeg  31.827 -1.3287 -1.15079
RightFoot  -4.90277 0.437644 -8.31141
RightToes  0.00048216 0.542163 -0.142577
Spine  19.6509 -10.7508 -0.433821
Spine1  3.80489 -15.2253 19.5625
HEad  -6.63267 18.8272 -11.9587
LeftShoulder1  10.014 -16.6799 -43.1366
LeftArm  41.3103 -30.1298 -61.0738
LeftForeArm  -2.0488 -20.2366 -6.48232
LeftHand  -0.25398 0.0180481 5.50724
RightShoulder  3.71573 6.5456 31.0218
RightArm  -15.8823 -37.8717 29.2068
RightForeArm  -4.1616 74.037 48.8921
RightHand  -0.912133 1.02927 -16.5555
LeftUpLeg  4.70282 12.2885 6.68191
LeftLeg  54.7615 1.32557 2.51647
LeftFoot  18.116 2.04037 -8.15735
LeftToes  1.06246e-005 4.65856e-005 -8.18501e-006
412
root  22.9098 38.0894 15.8626 149.438 -78.0359 -151.217
RightUpLeg  -21.8778 -10.6357 10.2042
RightLeg  31.0767 -0.679172 -0.705022
RightFoot  -7.04226 0.230484 -7.36444
RightToes  0.00048216 0.542163 -0.142577
Spine  19.6316 -10.3493 -0.375525
Spine1  3.7427 -14.7969 19.7414
HEad  -5.31974 18.4957 -11.1036
LeftShoulder1  9.92302 -16.5303 -43.0602
LeftArm  40.3398 -30.5003 -61.0482
LeftForeArm  -0.885772 -20.6259 -6.12292
LeftHand  -0.25398 0.0180481 5.50724
RightShoulder  3.77163 6.63208 31.2604
RightArm  -16.0401 -36.8536 29.8384
RightForeArm  -6.13272 73.869 48.3771
RightHand  -1.03178 1.42959 -17.6398
LeftUpLeg  -1.9565 11.0633 5.95599
LeftLeg  61.2735 2.73818 5.95956
LeftFoot  14.6606 1.20931 -5.5818
LeftToes  1.06246e-005 4.65856e-005 -8.18501e-006
413
root  21.2442 38.5787 15.6732 155.796 -77.8456 -157.672
RightUpLeg  -17.88 -10.9132 8.16614
RightLeg  29.2735 0.47321 0.0289258
RightFoot  -8.8672 0.0720533 -6.12338
RightToes  0.00048216 0.542163 -0.142577
Spine  19.4083 -9.78645 -1.27885
Spine1  3.70987 -14.2766 19.4273
HEad  -3.94282 18.3325 -10.2471
LeftShoulder1  9.74836 -16.3612 -42.6375
LeftArm  39.1392 -30.7087 -60.8954
LeftForeArm  0.219982 -21.2656 -5.64249
LeftHand  -0.25398 0.0180481 5.50724
RightShoulder  3.809 6.73373 31.2564
RightArm  -16.0665 -35.6709 30.8548
RightForeArm  -9.18103 73.4246 46.7798
RightHand  -1.07523 1.46182 -18.2896
LeftUpLeg  -7.91962 10.0776 4.37435
LeftLeg  64.0378 3.42976 8.25724
LeftFoot  9.85812 0.437566 -2.67868
LeftToes  1.06246e-005 4.65856e-005 -8.18501e-006
414
root  19.5808 38.9969 15.4831 162.88 -77.3152 -164.627
RightUpLeg  -14.1573 -11.0864 6.05265
RightLeg  27.3569 1.76522 0.768764
RightFoot  -10.4183 -0.0269811 -5.47134
RightToes  0.00048216 0.542163 -0.142577
Spine  18.7651 -9.20589 -2.07732
Spine1  3.8082 -13.7181 18.9254
HEad  -2.85369 18.1535 -9.93297
LeftShoulder1  9.54938 -16.2177 -42.0324
LeftArm  38.707 -31.0942 -60.7693
LeftForeArm  0.710851 -21.6089 -5.43241
LeftHand  -0.25398 0.0180481 5.50724
RightShoulder  3.80982 6.8203 30.9498
RightArm  -15.9073 -34.7205 31.8765
RightForeArm  -11.4925 72.8981 44.8984
RightHand  -0.883857 0.40567 -17.6746
LeftUpLeg  -13.3927 8.92446 2.72965
LeftLeg  63.3729 3.47171 8.1481
LeftFoot  6.37009 0.0884574 -0.832887
LeftToes  1.06246e-005 4.65856e-005 -8.18501e-006
